<?xml version="1.0" encoding="UTF-8"?>
<svg id="Layer_1" data-name="Layer 1" xmlns="http://www.w3.org/2000/svg" viewBox="0 0 38.81 38.35">
  <polygon points="33.67 35.17 21.54 30.27 10.99 37.38 11.48 24.46 1.12 16.35 13.55 13.25 17.68 1.13 24.88 12.15 37.8 12.76 29.82 22.66 33.67 35.17" class="my-polygon"/>
  <path d="m10.46,38.35l.51-13.66L0,16.11l13.16-3.27L17.54,0l7.62,11.66,13.65.65-8.43,10.46,4.08,13.25-12.86-5.19-11.14,7.51ZM2.23,16.58l9.76,7.63-.46,12.2,9.95-6.71,11.4,4.6-3.62-11.75,7.53-9.34-12.19-.58-6.78-10.37-3.9,11.41-11.7,2.91Z" class="my-path"/>
</svg>
